<svg width="18" height="18" viewBox="0 0 18 18" fill="none" xmlns="http://www.w3.org/2000/svg">
    <path fill-rule="evenodd" clip-rule="evenodd"
        d="M17.3346 9.00002C17.3346 13.5834 13.5846 17.3334 9.0013 17.3334C4.41797 17.3334 0.667969 13.5834 0.667969 9.00002C0.667969 4.41669 4.41797 0.666687 9.0013 0.666687C13.5846 0.666687 17.3346 4.41669 17.3346 9.00002ZM13.0728 7.17247C13.366 6.87984 13.3664 6.40496 13.0738 6.11181C12.7811 5.81866 12.3063 5.81824 12.0131 6.11088L7.81844 10.2981L5.98997 8.46968C5.69707 8.17678 5.2222 8.17678 4.92931 8.46968C4.63641 8.76257 4.63641 9.23744 4.92931 9.53034L7.28764 11.8887C7.58035 12.1814 8.05486 12.1816 8.34783 11.8891L13.0728 7.17247Z"
        fill="white" />
</svg>
