<svg width="10" height="10" viewBox="0 0 10 10" fill="none" xmlns="http://www.w3.org/2000/svg">
    <path fill-rule="evenodd" clip-rule="evenodd"
        d="M0.96967 0.96967C1.26256 0.676777 1.73744 0.676777 2.03033 0.96967L5.00085 3.94019L7.97138 0.96967C8.26427 0.676777 8.73915 0.676777 9.03204 0.96967C9.32493 1.26256 9.32493 1.73744 9.03204 2.03033L6.06152 5.00085L9.03204 7.97138C9.32493 8.26427 9.32493 8.73915 9.03204 9.03204C8.73915 9.32493 8.26427 9.32493 7.97138 9.03204L5.00085 6.06152L2.03033 9.03204C1.73744 9.32493 1.26256 9.32493 0.96967 9.03204C0.676777 8.73915 0.676777 8.26427 0.96967 7.97138L3.94019 5.00085L0.96967 2.03033C0.676777 1.73744 0.676777 1.26256 0.96967 0.96967Z"
        fill="#242728" />
</svg>
