<svg width="24" height="24" viewBox="0 0 24 24" fill="none" xmlns="http://www.w3.org/2000/svg">
<path fill-rule="evenodd" clip-rule="evenodd" d="M6.21967 6.21967C6.51256 5.92678 6.98744 5.92678 7.28033 6.21967L12.0013 10.9406L16.7222 6.21967C17.0151 5.92678 17.49 5.92678 17.7829 6.21967C18.0758 6.51256 18.0758 6.98744 17.7829 7.28033L13.0619 12.0013L17.7829 16.7222C18.0758 17.0151 18.0758 17.49 17.7829 17.7829C17.49 18.0758 17.0151 18.0758 16.7222 17.7829L12.0013 13.0619L7.28033 17.7829C6.98744 18.0758 6.51256 18.0758 6.21967 17.7829C5.92678 17.49 5.92678 17.0151 6.21967 16.7222L10.9406 12.0013L6.21967 7.28033C5.92678 6.98744 5.92678 6.51256 6.21967 6.21967Z" fill="#242628"/>
</svg>
