<svg width="18" height="18" viewBox="0 0 18 18" fill="none" xmlns="http://www.w3.org/2000/svg">
<path fill-rule="evenodd" clip-rule="evenodd" d="M9.0013 17.3334C13.5846 17.3334 17.3346 13.5834 17.3346 9.00002C17.3346 4.41669 13.5846 0.666687 9.0013 0.666687C4.41797 0.666687 0.667969 4.41669 0.667969 9.00002C0.667969 13.5834 4.41797 17.3334 9.0013 17.3334ZM7.99642 5.66669C7.99642 5.1144 8.44413 4.66669 8.99642 4.66669H9.0039C9.55619 4.66669 10.0039 5.1144 10.0039 5.66669C10.0039 6.21897 9.55619 6.66669 9.0039 6.66669H8.99642C8.44413 6.66669 7.99642 6.21897 7.99642 5.66669ZM9.74642 9.00002C9.74642 8.58581 9.41063 8.25002 8.99642 8.25002C8.58221 8.25002 8.24642 8.58581 8.24642 9.00002V13.1667C8.24642 13.5809 8.58221 13.9167 8.99642 13.9167C9.41063 13.9167 9.74642 13.5809 9.74642 13.1667V9.00002Z" fill="white"/>
</svg>
