<svg width="22" height="16" viewBox="0 0 22 16" fill="none" xmlns="http://www.w3.org/2000/svg">
<path fill-rule="evenodd" clip-rule="evenodd" d="M1.75 8C1.75 7.66159 1.88577 7.09543 2.24331 6.40895C2.59385 5.73591 3.13459 4.9926 3.88371 4.3011C5.37297 2.9264 7.69232 1.75 11 1.75C14.3077 1.75 16.627 2.9264 18.1163 4.3011C18.8654 4.9926 19.4061 5.73591 19.7567 6.40895C20.1142 7.09543 20.25 7.66159 20.25 8C20.25 8.33841 20.1142 8.90457 19.7567 9.59105C19.4061 10.2641 18.8654 11.0074 18.1163 11.6989C16.627 13.0736 14.3077 14.25 11 14.25C7.69232 14.25 5.37297 13.0736 3.88371 11.6989C3.13459 11.0074 2.59385 10.2641 2.24331 9.59105C1.88577 8.90457 1.75 8.33841 1.75 8ZM11 0.25C7.30768 0.25 4.62703 1.5736 2.86629 3.1989C1.99041 4.0074 1.34365 4.88909 0.912939 5.71605C0.489229 6.52957 0.25 7.33841 0.25 8C0.25 8.66159 0.489229 9.47043 0.912939 10.284C1.34365 11.1109 1.99041 11.9926 2.86629 12.8011C4.62703 14.4264 7.30768 15.75 11 15.75C14.6923 15.75 17.373 14.4264 19.1337 12.8011C20.0096 11.9926 20.6564 11.1109 21.0871 10.284C21.5108 9.47043 21.75 8.66159 21.75 8C21.75 7.33841 21.5108 6.52957 21.0871 5.71605C20.6564 4.88909 20.0096 4.0074 19.1337 3.1989C17.373 1.5736 14.6923 0.25 11 0.25ZM8.7499 8.00002C8.7499 6.75738 9.75726 5.75002 10.9999 5.75002C12.2425 5.75002 13.2499 6.75738 13.2499 8.00002C13.2499 9.24266 12.2425 10.25 10.9999 10.25C9.75726 10.25 8.7499 9.24266 8.7499 8.00002ZM10.9999 4.25002C8.92883 4.25002 7.2499 5.92896 7.2499 8.00002C7.2499 10.0711 8.92883 11.75 10.9999 11.75C13.071 11.75 14.7499 10.0711 14.7499 8.00002C14.7499 5.92896 13.071 4.25002 10.9999 4.25002Z" fill="#242628"/>
</svg>
