<svg width="24" height="24" viewBox="0 0 24 24" fill="none" xmlns="http://www.w3.org/2000/svg">
<path d="M19.5 6.98332C16.725 6.70832 13.9333 6.56665 11.15 6.56665C9.5 6.56665 7.85 6.64998 6.2 6.81665L4.5 6.98332" fill="white"/>
<path d="M19.5 6.98332C16.725 6.70832 13.9333 6.56665 11.15 6.56665C9.5 6.56665 7.85 6.64998 6.2 6.81665L4.5 6.98332" stroke="white" stroke-width="1.5" stroke-linecap="round" stroke-linejoin="round"/>
<path d="M9.08301 6.14175L9.26634 5.05008C9.39967 4.25841 9.49967 3.66675 10.908 3.66675H13.0913C14.4997 3.66675 14.608 4.29175 14.733 5.05841L14.9163 6.14175" stroke="white" stroke-width="1.5" stroke-linecap="round" stroke-linejoin="round"/>
<path d="M17.7087 9.6167L17.167 18.0084C17.0753 19.3167 17.0003 20.3334 14.6753 20.3334H9.32533C7.00033 20.3334 6.92533 19.3167 6.83366 18.0084L6.29199 9.6167" stroke="white" stroke-width="1.5" stroke-linecap="round" stroke-linejoin="round"/>
<path d="M10.6084 15.75H13.3834" stroke="white" stroke-width="1.5" stroke-linecap="round" stroke-linejoin="round"/>
<path d="M9.91699 12.4167H14.0837" stroke="white" stroke-width="1.5" stroke-linecap="round" stroke-linejoin="round"/>
</svg>
