<svg width="18" height="16" viewBox="0 0 18 16" fill="none" xmlns="http://www.w3.org/2000/svg">
<path fill-rule="evenodd" clip-rule="evenodd" d="M11.3787 1.44722C10.3195 -0.382311 7.67804 -0.382309 6.61884 1.44722L0.921066 11.2888C-0.140338 13.1222 1.18258 15.4167 3.30099 15.4167H14.6965C16.8149 15.4167 18.1379 13.1222 17.0765 11.2888L11.3787 1.44722ZM9.74875 5.50003C9.74875 5.08582 9.41297 4.75003 8.99875 4.75003C8.58454 4.75003 8.24875 5.08582 8.24875 5.50003V8.83337C8.24875 9.24758 8.58454 9.58337 8.99875 9.58337C9.41297 9.58337 9.74875 9.24758 9.74875 8.83337V5.50003ZM9.83209 11.3334C9.83209 11.7936 9.459 12.1667 8.99876 12.1667C8.53852 12.1667 8.16543 11.7936 8.16543 11.3334C8.16543 10.8731 8.53852 10.5 8.99876 10.5C9.459 10.5 9.83209 10.8731 9.83209 11.3334Z" fill="white"/>
</svg>
